<?xml version="1.0" encoding="UTF-8" standalone="no"?>
<!-- Created with Inkscape (http://www.inkscape.org/) -->

<svg
   xmlns:dc="http://purl.org/dc/elements/1.1/"
   xmlns:cc="http://creativecommons.org/ns#"
   xmlns:rdf="http://www.w3.org/1999/02/22-rdf-syntax-ns#"
   xmlns:svg="http://www.w3.org/2000/svg"
   xmlns="http://www.w3.org/2000/svg"
   xmlns:sodipodi="http://sodipodi.sourceforge.net/DTD/sodipodi-0.dtd"
   xmlns:inkscape="http://www.inkscape.org/namespaces/inkscape"
   id="svg2"
   sodipodi:modified="true"
   viewBox="0 0 25.139514 24.999999"
   inkscape:export-ydpi="6.1738176"
   inkscape:export-xdpi="6.1738176"
   version="1.0"
   inkscape:output_extension="org.inkscape.output.svg.inkscape"
   sodipodi:docname="penciledit3.svg"
   inkscape:export-filename="/home/dirk/Web-DBs/seed-db-github/public/images/pencil.png"
   inkscape:version="0.92.5 (2060ec1f9f, 2020-04-08)"
   sodipodi:version="0.32"
   width="25.139513"
   height="25">
  <defs
     id="defs4">
    <linearGradient
       id="linearGradient7803"
       y2="414.35999"
       gradientUnits="userSpaceOnUse"
       x2="353.75"
       gradientTransform="matrix(2.5278,2.5256,-2.5278,2.5256,595.91088,-1499.6629)"
       y1="414.35999"
       x1="335.72"
       inkscape:collect="always">
      <stop
         id="stop3708"
         style="stop-color:#ffffff;stop-opacity:.82653"
         offset="0" />
      <stop
         id="stop3710"
         style="stop-color:#ffffff;stop-opacity:0"
         offset="1" />
    </linearGradient>
    <linearGradient
       id="linearGradient7812"
       y2="437.79001"
       gradientUnits="userSpaceOnUse"
       x2="365.75"
       gradientTransform="matrix(2.5278,2.5256,-2.5278,2.5256,595.91088,-1499.6629)"
       y1="437.79001"
       x1="331.72"
       inkscape:collect="always">
      <stop
         id="stop3687"
         style="stop-color:#ffffff"
         offset="0" />
      <stop
         id="stop3711"
         style="stop-color:#ffdd7c"
         offset="1" />
    </linearGradient>
    <linearGradient
       id="linearGradient7819"
       y2="318.69"
       gradientUnits="userSpaceOnUse"
       x2="185.48"
       gradientTransform="matrix(2.3454,2.3434,-2.3454,2.3434,918.99089,-844.33294)"
       y1="318.69"
       x1="148.7"
       inkscape:collect="always">
      <stop
         id="stop4256"
         style="stop-color:#ff9191"
         offset="0" />
      <stop
         id="stop4258"
         style="stop-color:#b55858"
         offset="1" />
    </linearGradient>
  </defs>
  <sodipodi:namedview
     id="base"
     bordercolor="#666666"
     inkscape:pageshadow="2"
     guidetolerance="10"
     pagecolor="#ffffff"
     gridtolerance="10000"
     inkscape:window-height="916"
     inkscape:zoom="10.46518"
     objecttolerance="10"
     borderopacity="1.0"
     inkscape:current-layer="layer2"
     inkscape:cx="10.816288"
     inkscape:cy="16.587136"
     showguides="true"
     inkscape:window-y="27"
     inkscape:window-x="393"
     inkscape:window-width="1322"
     inkscape:guide-bbox="true"
     inkscape:pageopacity="0.0"
     inkscape:document-units="px"
     showgrid="false"
     inkscape:window-maximized="0"
     fit-margin-top="0"
     fit-margin-left="0"
     fit-margin-right="0"
     fit-margin-bottom="0" />
  <g
     id="layer2"
     inkscape:label="pencil"
     inkscape:groupmode="layer"
     transform="translate(-403.116,-397.64218)"
     style="display:inline">
    <g
       id="g857"
       transform="matrix(0.87748526,0,0,0.87748526,49.387653,51.779896)"
       style="stroke:none">
      <g
         style="stroke:none;stroke-width:4.87462854;stroke-miterlimit:4;stroke-dasharray:none;stroke-opacity:1"
         transform="matrix(0.06154315,0,0,0.06154315,390.78373,382.28916)"
         id="g866">
        <path
           inkscape:connector-curvature="0"
           d="m 521.10089,293.40706 c -1.55001,-1.55 -3.37,-2.77 -5.29001,-3.55 -1.91999,-0.78 -3.96,-1.1 -6,-1.1 -2.05,0 -4.09,0.32 -6.01,1.1 -1.92,0.78 -3.73,2 -5.29,3.55 l -29.23,29.2 -173.55,173.4 c -0.54,0.54 -0.74,1.24 -1.18,1.82 l 21.48,0.63 1.27,41.67 24.64,0.79 172.92,-172.77 29.23,-29.2 c 1.56,-1.55 2.78,-3.37 3.56,-5.29 0.77,-1.92 1.1,-3.95 1.1,-5.99 0,-2.05 -0.33,-4.08 -1.1,-6 -0.78,-1.92 -2,-3.73 -3.56,-5.29 z"
           style="color:#000000;fill:url(#linearGradient7803);stroke:none;stroke-width:4.87462854;stroke-miterlimit:4;stroke-dasharray:none;stroke-opacity:1"
           id="path3680" />
        <path
           inkscape:connector-curvature="0"
           d="m 597.38089,259.87706 c -23.74,-23.72 -49.66,-36.33 -57.82001,-28.18 -0.54999,0.55 -1.03,1.17 -1.4,1.88 l -51.66,51.62 7.8,7.79 30.34001,30.31 9.74,9.74 38.14,38.11 53.37,-53.32 c -0.03,-0.1 -0.03,-0.21 -0.06,-0.31 l -0.06,-0.06 0.06,-0.06 c 7.68,-8.4 -4.93,-34.03 -28.45,-57.52 z"
           style="color:#000000;fill:url(#linearGradient7819);stroke:none;stroke-width:4.87462854;stroke-miterlimit:4;stroke-dasharray:none;stroke-opacity:1"
           id="path4217" />
        <path
           inkscape:connector-curvature="0"
           d="m 500.45088,271.25706 -48.31,48.27 -5.54,5.54 7.79,7.79 78.23001,78.16 53.85,-53.81 -43.01,-42.98 -35.21,-35.18 z"
           style="color:#000000;fill:#e3dedb;stroke:none;stroke-width:4.87462854;stroke-miterlimit:4;stroke-dasharray:none;stroke-opacity:1"
           id="path4235" />
        <path
           inkscape:connector-curvature="0"
           d="m 568.99089,374.67706 -86.02001,-85.95 -3.89999,3.9 -1.95,1.94 86.02,85.95 1.95,-1.95 z"
           style="color:#000000;fill:#000000;stroke:none;stroke-width:4.87462854;stroke-miterlimit:4;stroke-dasharray:none;stroke-opacity:1"
           id="path4143" />
        <path
           inkscape:connector-curvature="0"
           d="m 578.74089,364.93706 -86.03,-85.95 -3.9,3.9 -1.94,1.95 86.02,85.94 1.95,-1.95 z"
           style="color:#000000;fill:#000000;stroke:none;stroke-width:4.87462854;stroke-miterlimit:4;stroke-dasharray:none;stroke-opacity:1"
           id="path4147" />
        <path
           inkscape:connector-curvature="0"
           d="m 559.24089,384.41706 -86.02001,-85.95 -3.89999,3.9 -1.95,1.94 86.02,85.95 1.95,-1.95 z"
           style="color:#000000;fill:#000000;stroke:none;stroke-width:4.87462854;stroke-miterlimit:4;stroke-dasharray:none;stroke-opacity:1"
           id="path4163" />
        <path
           inkscape:connector-curvature="0"
           d="m 459.21088,312.46706 -184.9,184.74 -34.97,120.88 10.96,-3.16 110.03,-31.77 184.90001,-184.74 -16.69001,-16.68 -5.85,-5.84 -15.6,-15.59 -1.95,-1.94 -5.85,-5.85 -1.95,-1.95 -15.59,-15.58 -5.85,-5.84 -8.9,-8.89 z"
           style="color:#000000;fill:url(#linearGradient7812);stroke:none;stroke-width:4.87462854;stroke-miterlimit:4;stroke-dasharray:none;stroke-opacity:1"
           id="path4106" />
        <path
           inkscape:connector-curvature="0"
           d="m 286.88088,604.36706 -16.9,-16.89 -16.9,-16.89 -13.74,47.5 z"
           style="color:#000000;fill:#000000;stroke:none;stroke-width:4.87462854;stroke-miterlimit:4;stroke-dasharray:none;stroke-opacity:1"
           sodipodi:nodetypes="ccccc"
           id="path3990" />
        <path
           inkscape:connector-curvature="0"
           d="m 625.83089,317.51706 c 0.03,0.1 0.03,0.21 0.06,0.31 l 0.12,-0.13 z"
           style="color:#000000;fill:#ff9191;stroke:none;stroke-width:4.87462854;stroke-miterlimit:4;stroke-dasharray:none;stroke-opacity:1"
           id="path4089" />
        <path
           inkscape:connector-curvature="0"
           d="m 459.21088,312.46706 -184.9,184.74 41.73,1.28 1.28,41.69 41.73,1.28 1.28,41.7 184.9,-184.74 -21.51,-21.49 -21.5,-21.49 -21.51,-21.48 z"
           style="color:#000000;fill:#ffc700;stroke:none;stroke-width:4.87462854;stroke-miterlimit:4;stroke-dasharray:none;stroke-opacity:1"
           sodipodi:nodetypes="ccccccccccc"
           id="path3424" />
        <path
           inkscape:connector-curvature="0"
           d="m 459.21088,312.46706 -184.9,184.74 41.73,1.28 164.67,-164.53 z"
           style="color:#000000;fill:#ffda00;stroke:none;stroke-width:4.87462854;stroke-miterlimit:4;stroke-dasharray:none;stroke-opacity:1"
           sodipodi:nodetypes="ccccc"
           id="path3426" />
        <path
           inkscape:connector-curvature="0"
           d="m 359.05088,541.45706 1.28,41.7 184.90001,-184.74 -21.51,-21.49 z"
           style="color:#000000;fill:#ff8a00;stroke:none;stroke-width:4.87462854;stroke-miterlimit:4;stroke-dasharray:none;stroke-opacity:1"
           sodipodi:nodetypes="ccccc"
           id="path3428" />
        <path
           inkscape:connector-curvature="0"
           d="m 317.32088,540.17706 41.73,1.28 164.67001,-164.53 -21.50001,-21.49 z"
           style="color:#000000;fill:#ffa100;stroke:none;stroke-width:4.87462854;stroke-miterlimit:4;stroke-dasharray:none;stroke-opacity:1"
           sodipodi:nodetypes="ccccc"
           id="path3430" />
        <path
           inkscape:connector-curvature="0"
           d="m 269.98088,587.47706 -11.24,-11.23 -19.4,41.84 z"
           style="color:#000000;opacity:0.8;fill:#ffffff;stroke:none;stroke-width:4.87462854;stroke-miterlimit:4;stroke-dasharray:none;stroke-opacity:1"
           sodipodi:nodetypes="cccc"
           id="path4288" />
      </g>
      <rect
         y="395.15167"
         x="404.116"
         height="26.490507"
         width="26.6495"
         id="rect839"
         style="fill:none;fill-opacity:1;stroke:none;stroke-width:2;stroke-linecap:round;stroke-linejoin:miter;stroke-miterlimit:4;stroke-dasharray:none;stroke-dashoffset:0;stroke-opacity:1;paint-order:fill markers stroke" />
    </g>
  </g>
  <metadata
     id="metadata891">
    <rdf:RDF>
      <cc:Work>
        <dc:format>image/svg+xml</dc:format>
        <dc:type
           rdf:resource="http://purl.org/dc/dcmitype/StillImage" />
        <cc:license
           rdf:resource="http://creativecommons.org/publicdomain/zero/1.0/" />
        <dc:publisher>
          <cc:Agent
             rdf:about="http://openclipart.org/">
            <dc:title>Openclipart</dc:title>
          </cc:Agent>
        </dc:publisher>
        <dc:title>Pencil</dc:title>
        <dc:date>2007-02-22T17:59:32</dc:date>
        <dc:description>A pencil icon.</dc:description>
        <dc:source>https://openclipart.org/detail/3297/pencil-by-barretr</dc:source>
        <dc:creator>
          <cc:Agent>
            <dc:title>barretr</dc:title>
          </cc:Agent>
        </dc:creator>
        <dc:subject>
          <rdf:Bag>
            <rdf:li>color</rdf:li>
            <rdf:li>drawing</rdf:li>
            <rdf:li>icon</rdf:li>
            <rdf:li>office</rdf:li>
            <rdf:li>pencil</rdf:li>
            <rdf:li>school</rdf:li>
            <rdf:li>writing</rdf:li>
            <rdf:li>yellow</rdf:li>
          </rdf:Bag>
        </dc:subject>
      </cc:Work>
      <cc:License
         rdf:about="http://creativecommons.org/publicdomain/zero/1.0/">
        <cc:permits
           rdf:resource="http://creativecommons.org/ns#Reproduction" />
        <cc:permits
           rdf:resource="http://creativecommons.org/ns#Distribution" />
        <cc:permits
           rdf:resource="http://creativecommons.org/ns#DerivativeWorks" />
      </cc:License>
    </rdf:RDF>
  </metadata>
</svg>
