<?xml version="1.0" encoding="UTF-8" standalone="no"?>
<svg
   width="34"
   height="34"
   viewBox="0 0 34 34"
   stroke-width="1.5"
   fill="none"
   color="#000000"
   version="1.1"
   id="svg6"
   sodipodi:docname="add-page.svg"
   inkscape:version="1.2.2 (1:1.2.2+202212051550+b0a8486541)"
   xmlns:inkscape="http://www.inkscape.org/namespaces/inkscape"
   xmlns:sodipodi="http://sodipodi.sourceforge.net/DTD/sodipodi-0.dtd"
   xmlns="http://www.w3.org/2000/svg"
   xmlns:svg="http://www.w3.org/2000/svg">
  <defs
     id="defs10" />
  <sodipodi:namedview
     id="namedview8"
     pagecolor="#ffffff"
     bordercolor="#000000"
     borderopacity="0.25"
     inkscape:showpageshadow="2"
     inkscape:pageopacity="0.0"
     inkscape:pagecheckerboard="0"
     inkscape:deskcolor="#d1d1d1"
     showgrid="false"
     inkscape:zoom="22.327479"
     inkscape:cx="16.146023"
     inkscape:cy="16.325175"
     inkscape:window-width="1876"
     inkscape:window-height="1016"
     inkscape:window-x="44"
     inkscape:window-y="27"
     inkscape:window-maximized="1"
     inkscape:current-layer="svg6" />
  <g
     id="g299"
     transform="translate(2.5072664,1.9375001)">
    <path
       d="m 10.638081,15.0625 h 3.854652 m 3.854651,0 h -3.854651 m 0,0 v -3.854651 m 0,3.854651 v 3.854651 M 4.2136628,27.140407 V 2.984593 A 0.77093023,0.77093023 0 0 1 4.984593,2.2136628 h 14.971465 a 0.77093023,0.77093023 0 0 1 0.544791,0.2261395 l 4.044814,4.044814 a 0.77093023,0.77093023 0 0 1 0.226139,0.5473604 V 27.140407 a 0.77093023,0.77093023 0 0 1 -0.77093,0.77093 H 4.984593 a 0.77093023,0.77093023 0 0 1 -0.7709302,-0.77093 z"
       stroke="#000000"
       stroke-width="1.92733"
       stroke-linecap="round"
       stroke-linejoin="round"
       id="path2" />
    <path
       d="m 19.632267,2.2136628 v 4.3686046 a 0.77093023,0.77093023 0 0 0 0.770931,0.7709303 h 4.368604"
       stroke="#000000"
       stroke-width="1.92733"
       stroke-linecap="round"
       stroke-linejoin="round"
       id="path4" />
  </g>
</svg>
