<?xml version="1.0" encoding="UTF-8" standalone="no"?>
<svg
   class="ionicon"
   viewBox="0 0 57.480034 33.16954"
   version="1.1"
   id="svg1"
   sodipodi:docname="barcode-outline.svg"
   width="57.480034"
   height="33.16954"
   inkscape:version="1.3.2 (1:1.3.2+202311252150+091e20ef0f)"
   xmlns:inkscape="http://www.inkscape.org/namespaces/inkscape"
   xmlns:sodipodi="http://sodipodi.sourceforge.net/DTD/sodipodi-0.dtd"
   xmlns="http://www.w3.org/2000/svg"
   xmlns:svg="http://www.w3.org/2000/svg">
  <defs
     id="defs1" />
  <sodipodi:namedview
     id="namedview1"
     pagecolor="#ffffff"
     bordercolor="#000000"
     borderopacity="0.25"
     inkscape:showpageshadow="2"
     inkscape:pageopacity="0.0"
     inkscape:pagecheckerboard="0"
     inkscape:deskcolor="#d1d1d1"
     inkscape:zoom="10.671875"
     inkscape:cx="37.29429"
     inkscape:cy="23.004392"
     inkscape:window-width="1876"
     inkscape:window-height="1016"
     inkscape:window-x="44"
     inkscape:window-y="27"
     inkscape:window-maximized="1"
     inkscape:current-layer="svg1"
     showguides="true">
    <sodipodi:guide
       position="29.875176,29.167792"
       orientation="0,-1"
       id="guide1"
       inkscape:locked="false" />
    <sodipodi:guide
       position="33.998162,6.0228435"
       orientation="0,-1"
       id="guide2"
       inkscape:locked="false" />
  </sodipodi:namedview>
  <path
     d="m 44.381752,31.769541 4.292923,-0.0348 c 1.944816,-0.0075 3.519246,-1.364552 3.527944,-3.040853 V 4.44085 C 52.19392,2.7645504 50.61949,1.407498 48.674675,1.4 L 44.381752,1.43476 M 13.09828,1.4 8.6012823,1.43476 c -1.940552,0 -3.323868,1.369278 -3.323868,3.040851 v 24.254131 c 0,1.671573 1.383316,3.039799 3.323868,3.039799 l 4.4969977,-0.0348 M 40.981752,6.2103291 V 26.462532 M 34.760884,6.355796 V 26.478982 M 26.940017,6.3216543 V 26.592723 M 20.919149,6.255796 V 26.478982 M 13.09828,6.3003416 V 26.516682 m 33.179531,-20.2351 v 20.152203"
     fill="none"
     stroke="currentColor"
     stroke-linecap="round"
     stroke-linejoin="round"
     stroke-width="3.63046"
     id="path1"
     style="stroke-width:2.8;stroke-dasharray:none"
     sodipodi:nodetypes="ccccccccsscccccccccccccc" />
  <path
     style="opacity:0.83;fill:#1a1a1a;stroke:#000000;stroke-width:1.83;stroke-linecap:round;stroke-dasharray:none"
     d="M 0.91500002,15.485973 56.565033,15.248018"
     id="path2"
     sodipodi:nodetypes="cc" />
</svg>
