<?xml version="1.0" encoding="UTF-8" standalone="no"?>
<svg
   width="34"
   height="34"
   stroke-width="1.5"
   viewBox="0 0 34 34"
   fill="none"
   color="#000000"
   version="1.1"
   id="svg36"
   sodipodi:docname="bin-full.svg"
   inkscape:version="1.2.2 (1:1.2.2+202212051550+b0a8486541)"
   xmlns:inkscape="http://www.inkscape.org/namespaces/inkscape"
   xmlns:sodipodi="http://sodipodi.sourceforge.net/DTD/sodipodi-0.dtd"
   xmlns="http://www.w3.org/2000/svg"
   xmlns:svg="http://www.w3.org/2000/svg">
  <defs
     id="defs40" />
  <sodipodi:namedview
     id="namedview38"
     pagecolor="#ffffff"
     bordercolor="#000000"
     borderopacity="0.25"
     inkscape:showpageshadow="2"
     inkscape:pageopacity="0.0"
     inkscape:pagecheckerboard="0"
     inkscape:deskcolor="#d1d1d1"
     showgrid="false"
     inkscape:zoom="15.786918"
     inkscape:cx="10.800081"
     inkscape:cy="20.048245"
     inkscape:window-width="1876"
     inkscape:window-height="1016"
     inkscape:window-x="44"
     inkscape:window-y="27"
     inkscape:window-maximized="1"
     inkscape:current-layer="svg36" />
  <path
     d="M 28.729167,25.623461 31.432004,5.3441232 A 0.96760263,0.96760263 0 0 0 30.832091,4.3184644 l -7.363457,-2.94635 h -8.86969 L 13.499102,3.791121 5.7292528,1.3721144 2.8425716,4.2587956 A 0.96760263,0.96760263 0 0 0 2.5684175,5.0715818 L 5.306733,25.623461 a 6.4506842,6.4506842 0 0 0 3.1930887,4.747704 l 0.5160547,0.295119 a 16.126711,16.126711 0 0 0 16.0025346,0 l 0.516055,-0.295119 a 6.4506842,6.4506842 0 0 0 3.193089,-4.747704 z M 23.468634,1.3721144 20.243292,9.4354694 M 12.179937,8.6291341 13.499102,3.791121 M 2.5039107,6.2101275 c 4.1461773,4.3009935 24.8819013,4.3009935 29.0280793,0"
     stroke="#000000"
     stroke-width="2.41901"
     id="path34" />
  <path
     d="m 12.138671,19.567282 h 9.722658"
     stroke="#000000"
     stroke-width="2.43066"
     stroke-linecap="round"
     stroke-linejoin="round"
     id="path307"
     style="stroke:#f80707;stroke-opacity:1;fill:none" />
</svg>
