<?xml version="1.0" encoding="UTF-8" standalone="no"?>
<svg
   width="34"
   height="34"
   stroke-width="1.5"
   viewBox="0 0 34 34"
   fill="none"
   color="#000000"
   version="1.1"
   id="svg311"
   sodipodi:docname="bin-minus.svg"
   inkscape:version="1.2.2 (1:1.2.2+202212051550+b0a8486541)"
   xmlns:inkscape="http://www.inkscape.org/namespaces/inkscape"
   xmlns:sodipodi="http://sodipodi.sourceforge.net/DTD/sodipodi-0.dtd"
   xmlns="http://www.w3.org/2000/svg"
   xmlns:svg="http://www.w3.org/2000/svg">
  <defs
     id="defs315" />
  <sodipodi:namedview
     id="namedview313"
     pagecolor="#ffffff"
     bordercolor="#000000"
     borderopacity="0.25"
     inkscape:showpageshadow="2"
     inkscape:pageopacity="0.0"
     inkscape:pagecheckerboard="0"
     inkscape:deskcolor="#d1d1d1"
     showgrid="false"
     inkscape:zoom="31.583333"
     inkscape:cx="10.3219"
     inkscape:cy="12"
     inkscape:window-width="1429"
     inkscape:window-height="939"
     inkscape:window-x="82"
     inkscape:window-y="65"
     inkscape:window-maximized="0"
     inkscape:current-layer="svg311" />
  <path
     d="m 12.138671,17 h 9.722658"
     stroke="#000000"
     stroke-width="2.43066"
     stroke-linecap="round"
     stroke-linejoin="round"
     id="path307" />
  <path
     d="M 2.5618505,4.9326288 A 0.80373975,0.80373975 0 0 1 2.8713551,4.1564366 C 3.9991835,3.3543173 7.867181,1.2153325 17.08102,1.2153325 c 9.213839,0 13.081837,2.1389848 14.209665,2.9411041 A 0.80373975,0.80373975 0 0 1 31.60181,4.9326288 L 28.847057,25.583555 a 6.4817722,6.4817722 0 0 1 -3.208477,4.770584 l -0.518542,0.296541 a 16.204431,16.204431 0 0 1 -16.0780357,0 L 8.5234605,30.354139 A 6.4817722,6.4817722 0 0 1 5.3149832,25.583555 L 2.56023,4.9326288 Z m -0.064818,1.1440328 c 4.166159,4.3217214 25.0018155,4.3217214 29.1679745,0"
     stroke="#000000"
     stroke-width="2.43066"
     id="path309" />
</svg>
