<?xml version="1.0" encoding="UTF-8" standalone="no"?>
<svg
   width="18"
   height="18"
   stroke-width="1.5"
   viewBox="0 0 18 18"
   fill="none"
   color="#000000"
   version="1.1"
   id="svg40"
   sodipodi:docname="copy.svg"
   inkscape:version="1.2.2 (1:1.2.2+202212051550+b0a8486541)"
   xmlns:inkscape="http://www.inkscape.org/namespaces/inkscape"
   xmlns:sodipodi="http://sodipodi.sourceforge.net/DTD/sodipodi-0.dtd"
   xmlns="http://www.w3.org/2000/svg"
   xmlns:svg="http://www.w3.org/2000/svg">
  <defs
     id="defs44" />
  <sodipodi:namedview
     id="namedview42"
     pagecolor="#ffffff"
     bordercolor="#000000"
     borderopacity="0.25"
     inkscape:showpageshadow="2"
     inkscape:pageopacity="0.0"
     inkscape:pagecheckerboard="0"
     inkscape:deskcolor="#d1d1d1"
     showgrid="false"
     inkscape:zoom="31.583333"
     inkscape:cx="7.9630607"
     inkscape:cy="9.0079156"
     inkscape:window-width="1876"
     inkscape:window-height="1016"
     inkscape:window-x="44"
     inkscape:window-y="27"
     inkscape:window-maximized="1"
     inkscape:current-layer="svg40" />
  <g
     id="g883"
     transform="translate(-3,-3)">
    <path
       d="M 19.4,20 H 9.6 A 0.6,0.6 0 0 1 9,19.4 V 9.6 A 0.6,0.6 0 0 1 9.6,9 h 9.8 A 0.6,0.6 0 0 1 20,9.6 v 9.8 A 0.6,0.6 0 0 1 19.4,20 Z"
       stroke="#000000"
       stroke-width="1.5"
       stroke-linecap="round"
       stroke-linejoin="round"
       id="path36"
       style="fill:none;fill-opacity:1;stroke-width:2;stroke-dasharray:none" />
    <path
       d="M 15,9 V 4.6 A 0.6,0.6 0 0 0 14.4,4 H 4.6 A 0.6,0.6 0 0 0 4,4.6 v 9.8 A 0.6,0.6 0 0 0 4.6,15 H 9"
       stroke="#000000"
       stroke-width="1.5"
       stroke-linecap="round"
       stroke-linejoin="round"
       id="path38"
       style="stroke-width:2;stroke-dasharray:none" />
  </g>
</svg>
