<?xml version="1.0" encoding="UTF-8" standalone="no"?>
<svg
   width="34"
   height="34"
   stroke-width="1.5"
   viewBox="0 0 17.739131 17.73913"
   fill="none"
   color="#000000"
   version="1.1"
   id="svg184"
   sodipodi:docname="database-restore.svg"
   inkscape:version="1.2.2 (1:1.2.2+202212051550+b0a8486541)"
   xmlns:inkscape="http://www.inkscape.org/namespaces/inkscape"
   xmlns:sodipodi="http://sodipodi.sourceforge.net/DTD/sodipodi-0.dtd"
   xmlns="http://www.w3.org/2000/svg"
   xmlns:svg="http://www.w3.org/2000/svg">
  <defs
     id="defs188" />
  <sodipodi:namedview
     id="namedview186"
     pagecolor="#ffffff"
     bordercolor="#000000"
     borderopacity="0.25"
     inkscape:showpageshadow="2"
     inkscape:pageopacity="0.0"
     inkscape:pagecheckerboard="0"
     inkscape:deskcolor="#d1d1d1"
     showgrid="false"
     inkscape:zoom="16.478261"
     inkscape:cx="14.594987"
     inkscape:cy="8.8298153"
     inkscape:window-width="1876"
     inkscape:window-height="1016"
     inkscape:window-x="44"
     inkscape:window-y="27"
     inkscape:window-maximized="1"
     inkscape:current-layer="svg184" />
  <g
     id="g296"
     transform="matrix(0.86532344,0,0,0.86532344,-2.3796395,-1.9469778)">
    <path
       d="m 4,6 v 6 c 0,0 0,3 7,3 7,0 7,-3 7,-3 V 6"
       stroke="#000000"
       stroke-width="1.5"
       stroke-linecap="round"
       stroke-linejoin="round"
       id="path180" />
    <path
       d="m 11,3 c 7,0 7,3 7,3 0,0 0,3 -7,3 C 4,9 4,6 4,6 4,6 4,3 11,3 Z m 0,18 C 4,21 4,18 4,18 v -6 m 15,10 v -6 m 0,0 3,3 m -3,-3 -3,3"
       stroke="#000000"
       stroke-width="1.5"
       stroke-linecap="round"
       stroke-linejoin="round"
       id="path182" />
  </g>
</svg>
