<?xml version="1.0" encoding="UTF-8" standalone="no"?>
<svg
   width="34.000004"
   height="35.743591"
   stroke-width="1.5"
   viewBox="0 0 17.739132 18.64883"
   fill="none"
   color="#000000"
   version="1.1"
   id="svg6"
   sodipodi:docname="database-export.svg"
   inkscape:version="1.2.2 (1:1.2.2+202212051550+b0a8486541)"
   xmlns:inkscape="http://www.inkscape.org/namespaces/inkscape"
   xmlns:sodipodi="http://sodipodi.sourceforge.net/DTD/sodipodi-0.dtd"
   xmlns="http://www.w3.org/2000/svg"
   xmlns:svg="http://www.w3.org/2000/svg">
  <defs
     id="defs10" />
  <sodipodi:namedview
     id="namedview8"
     pagecolor="#ffffff"
     bordercolor="#000000"
     borderopacity="0.25"
     inkscape:showpageshadow="2"
     inkscape:pageopacity="0.0"
     inkscape:pagecheckerboard="0"
     inkscape:deskcolor="#d1d1d1"
     showgrid="false"
     inkscape:zoom="16.478261"
     inkscape:cx="15.748021"
     inkscape:cy="18.721636"
     inkscape:window-width="1876"
     inkscape:window-height="1016"
     inkscape:window-x="44"
     inkscape:window-y="27"
     inkscape:window-maximized="1"
     inkscape:current-layer="svg6" />
  <path
     d="m 14.32776,12.508362 v 5.458194 m 0,0 2.729097,-2.729097 M 14.32776,17.966556 11.598663,15.237459 M 0.682275,3.411372 v 5.4581938 c 0,0 0,2.7290972 6.3678928,2.7290972 6.3678932,0 6.3678932,-2.7290972 6.3678932,-2.7290972 V 3.411372"
     stroke="#000000"
     stroke-width="1.36455"
     stroke-linecap="round"
     stroke-linejoin="round"
     id="path2" />
  <path
     d="m 7.0501678,0.682275 c 6.3678932,0 6.3678932,2.729097 6.3678932,2.729097 0,0 0,2.729097 -6.3678932,2.729097 -6.3678928,0 -6.3678928,-2.729097 -6.3678928,-2.729097 0,0 0,-2.729097 6.3678928,-2.729097 z m 0,16.374582 C 0.682275,17.056857 0.682275,14.32776 0.682275,14.32776 V 8.8695658"
     stroke="#000000"
     stroke-width="1.36455"
     stroke-linecap="round"
     stroke-linejoin="round"
     id="path4" />
</svg>
