<?xml version="1.0" encoding="UTF-8" standalone="no"?>
<svg
   width="33.999992"
   height="35.802368"
   stroke-width="1.5"
   viewBox="0 0 17.739126 18.679496"
   fill="none"
   color="#000000"
   version="1.1"
   id="svg6"
   sodipodi:docname="db-error.svg"
   inkscape:version="1.2.2 (1:1.2.2+202212051550+b0a8486541)"
   xmlns:inkscape="http://www.inkscape.org/namespaces/inkscape"
   xmlns:sodipodi="http://sodipodi.sourceforge.net/DTD/sodipodi-0.dtd"
   xmlns="http://www.w3.org/2000/svg"
   xmlns:svg="http://www.w3.org/2000/svg">
  <defs
     id="defs10" />
  <sodipodi:namedview
     id="namedview8"
     pagecolor="#ffffff"
     bordercolor="#000000"
     borderopacity="0.25"
     inkscape:showpageshadow="2"
     inkscape:pageopacity="0.0"
     inkscape:pagecheckerboard="0"
     inkscape:deskcolor="#d1d1d1"
     showgrid="false"
     inkscape:zoom="16.478261"
     inkscape:cx="14.352243"
     inkscape:cy="19.26781"
     inkscape:window-width="1876"
     inkscape:window-height="1016"
     inkscape:window-x="44"
     inkscape:window-y="27"
     inkscape:window-maximized="1"
     inkscape:current-layer="svg6" />
  <path
     d="m 13.043863,17.974221 1.995464,-1.994524 m 1.994524,-1.995464 -1.994524,1.995464 m 0,0 -1.996404,-1.996404 m 1.995464,1.995464 1.994524,1.994523 M 0.705275,3.5263835 v 5.6422176 c 0,0 0,2.8211079 6.582587,2.8211079 6.582586,0 6.582586,-2.8211079 6.582586,-2.8211079 V 3.5263835"
     stroke="#000000"
     stroke-width="1.41055"
     stroke-linecap="round"
     stroke-linejoin="round"
     id="path2"
     style="stroke:#f90606;stroke-opacity:1" />
  <path
     d="m 7.287862,0.705275 c 6.582586,0 6.582586,2.8211085 6.582586,2.8211085 0,0 0,2.8211086 -6.582586,2.8211086 -6.582587,0 -6.582587,-2.8211086 -6.582587,-2.8211086 0,0 0,-2.8211085 6.582587,-2.8211085 z m 0,16.926651 c -6.582587,0 -6.582587,-2.821108 -6.582587,-2.821108 V 9.1686011"
     stroke="#000000"
     stroke-width="1.41055"
     stroke-linecap="round"
     stroke-linejoin="round"
     id="path4"
     style="stroke:#f90606;stroke-opacity:1" />
</svg>
