<?xml version="1.0" encoding="UTF-8" standalone="no"?>
<svg
   width="34"
   height="34"
   stroke-width="1.5"
   viewBox="0 0 34 34"
   fill="none"
   color="#000000"
   version="1.1"
   id="svg295"
   sodipodi:docname="db.svg"
   inkscape:version="1.2.2 (1:1.2.2+202212051550+b0a8486541)"
   xmlns:inkscape="http://www.inkscape.org/namespaces/inkscape"
   xmlns:sodipodi="http://sodipodi.sourceforge.net/DTD/sodipodi-0.dtd"
   xmlns="http://www.w3.org/2000/svg"
   xmlns:svg="http://www.w3.org/2000/svg">
  <defs
     id="defs299" />
  <sodipodi:namedview
     id="namedview297"
     pagecolor="#ffffff"
     bordercolor="#000000"
     borderopacity="0.25"
     inkscape:showpageshadow="2"
     inkscape:pageopacity="0.0"
     inkscape:pagecheckerboard="0"
     inkscape:deskcolor="#d1d1d1"
     showgrid="false"
     inkscape:zoom="12.819873"
     inkscape:cx="9.321465"
     inkscape:cy="12.675632"
     inkscape:window-width="1876"
     inkscape:window-height="1016"
     inkscape:window-x="44"
     inkscape:window-y="27"
     inkscape:window-maximized="1"
     inkscape:current-layer="svg295" />
  <g
     id="g531"
     transform="translate(0,-2.2500001)">
    <path
       d="m 4.7948717,19.25 v 10.461538 c 0,0 0,5.23077 12.2051283,5.23077 12.205128,0 12.205128,-5.23077 12.205128,-5.23077 V 19.25"
       stroke="#000000"
       stroke-width="2.61538"
       id="path289" />
    <path
       d="M 4.7948717,8.7884615 V 19.25 c 0,0 0,5.230769 12.2051283,5.230769 12.205128,0 12.205128,-5.230769 12.205128,-5.230769 V 8.7884615"
       stroke="#000000"
       stroke-width="2.61538"
       id="path291" />
    <path
       d="m 17,3.5576923 c 12.205128,0 12.205128,5.2307692 12.205128,5.2307692 0,0 0,5.2307695 -12.205128,5.2307695 -12.2051283,0 -12.2051283,-5.2307695 -12.2051283,-5.2307695 0,0 0,-5.2307692 12.2051283,-5.2307692 z"
       stroke="#000000"
       stroke-width="2.61538"
       id="path293" />
  </g>
</svg>
