<?xml version="1.0" encoding="UTF-8" standalone="no"?>
<svg
   width="16"
   height="16"
   stroke-width="1.5"
   viewBox="0 0 8.3478264 8.3478264"
   fill="none"
   color="#000000"
   version="1.1"
   id="svg4"
   sodipodi:docname="delete-circle.svg"
   inkscape:version="1.2.2 (1:1.2.2+202212051550+b0a8486541)"
   xmlns:inkscape="http://www.inkscape.org/namespaces/inkscape"
   xmlns:sodipodi="http://sodipodi.sourceforge.net/DTD/sodipodi-0.dtd"
   xmlns="http://www.w3.org/2000/svg"
   xmlns:svg="http://www.w3.org/2000/svg">
  <defs
     id="defs8" />
  <sodipodi:namedview
     id="namedview6"
     pagecolor="#ffffff"
     bordercolor="#000000"
     borderopacity="0.25"
     inkscape:showpageshadow="2"
     inkscape:pageopacity="0.0"
     inkscape:pagecheckerboard="0"
     inkscape:deskcolor="#d1d1d1"
     showgrid="false"
     inkscape:zoom="18.478261"
     inkscape:cx="17.101176"
     inkscape:cy="21.078823"
     inkscape:window-width="1876"
     inkscape:window-height="1016"
     inkscape:window-x="44"
     inkscape:window-y="27"
     inkscape:window-maximized="1"
     inkscape:current-layer="svg4" />
  <path
     style="color:#000000;fill:#ff0000;fill-opacity:1;stroke-width:1.59998;stroke-linecap:round;stroke-linejoin:round;-inkscape-stroke:none"
     d="M 4.1728714,0 C 1.8745405,0 0,1.8745405 0,4.1728714 c 0,2.2983309 1.8745405,4.174955 4.1728714,4.174955 2.2983309,0 4.174955,-1.8766241 4.174955,-4.174955 C 8.3478264,1.8745405 6.4712023,0 4.1728714,0 Z m 0,1.1583208 c 1.671916,0 3.016634,1.3426346 3.016634,3.0145506 0,1.671916 -1.344718,3.016634 -3.016634,3.016634 -1.671916,0 -3.0145506,-1.344718 -3.0145506,-3.016634 0,-1.671916 1.3426346,-3.0145506 3.0145506,-3.0145506 z M 3.158299,2.5770554 a 0.5795777,0.5795777 0 0 0 -0.4104121,0.1708315 0.5795777,0.5795777 0 0 0 0,0.8187411 L 3.3541303,4.1749547 2.7478869,4.7811982 a 0.5795777,0.5795777 0 0 0 0,0.818741 0.5795777,0.5795777 0 0 0 0.8187411,0 L 4.1749547,4.9916125 4.7811982,5.5999392 a 0.5795777,0.5795777 0 0 0 0.818741,0 0.5795777,0.5795777 0 0 0 0,-0.818741 L 4.9916125,4.1749547 5.5999392,3.566628 a 0.5795777,0.5795777 0 0 0 0,-0.8187411 0.5795777,0.5795777 0 0 0 -0.818741,0 L 4.1749547,3.3541303 3.566628,2.7478869 A 0.5795777,0.5795777 0 0 0 3.158299,2.5770554 Z"
     id="path2" />
</svg>
