<?xml version="1.0" encoding="UTF-8" standalone="no"?>
<svg
   width="46px"
   height="46px"
   viewBox="0 0 24 24"
   stroke-width="1.5"
   fill="none"
   color="#000000"
   version="1.1"
   id="svg1065"
   sodipodi:docname="download-data-window.svg"
   inkscape:version="1.2.2 (1:1.2.2+202212051550+b0a8486541)"
   xmlns:inkscape="http://www.inkscape.org/namespaces/inkscape"
   xmlns:sodipodi="http://sodipodi.sourceforge.net/DTD/sodipodi-0.dtd"
   xmlns="http://www.w3.org/2000/svg"
   xmlns:svg="http://www.w3.org/2000/svg">
  <defs
     id="defs1069" />
  <sodipodi:namedview
     id="namedview1067"
     pagecolor="#ffffff"
     bordercolor="#000000"
     borderopacity="0.25"
     inkscape:showpageshadow="2"
     inkscape:pageopacity="0.0"
     inkscape:pagecheckerboard="0"
     inkscape:deskcolor="#d1d1d1"
     showgrid="false"
     inkscape:zoom="17.673913"
     inkscape:cx="35.164822"
     inkscape:cy="23"
     inkscape:window-width="1876"
     inkscape:window-height="1016"
     inkscape:window-x="44"
     inkscape:window-y="27"
     inkscape:window-maximized="1"
     inkscape:current-layer="layer1" />
  <g
     inkscape:groupmode="layer"
     id="layer1"
     inkscape:label="Layer 1"
     style="display:inline">
    <g
       id="g1168">
      <path
         d="M 14,21 H 4 A 2,2 0 0 1 2,19 V 5 A 2,2 0 0 1 4,3 h 16 a 2,2 0 0 1 2,2 v 9"
         stroke="#000000"
         stroke-width="1.5"
         stroke-linecap="round"
         id="path1061" />
      <path
         style="color:#000000;fill:#000000;stroke-linecap:round;stroke-linejoin:round;-inkscape-stroke:none"
         d="M 4.9746094,4.25 C 4.7759088,4.25926 4.5890272,4.347085 4.4550781,4.4941406 l -0.00977,0.011719 C 4.1673457,4.812326 4.190068,5.2860007 4.4960891,5.5644533 4.8025556,5.8424158 5.2762303,5.8196935 5.5546829,5.5136723 l 0.00977,-0.00977 C 5.8437284,5.197176 5.820976,4.7219991 5.5136719,4.4433594 5.3666349,4.3101391 5.1727997,4.2406113 4.9746094,4.25 Z m 3,0 C 7.7759088,4.25926 7.5890272,4.347085 7.4550781,4.4941406 l -0.00977,0.011719 C 7.1673457,4.812326 7.190068,5.2860007 7.4960891,5.5644533 7.8025556,5.8424158 8.2762303,5.8196935 8.5546829,5.5136723 l 0.00977,-0.00977 C 8.8437284,5.197176 8.820976,4.7219991 8.5136719,4.4433594 8.3666349,4.3101391 8.1727997,4.2406113 7.9746094,4.25 Z m 2.9999996,0 c -0.1987,0.00926 -0.385582,0.097085 -0.519531,0.2441406 l -0.0098,0.011719 c -0.277963,0.3064662 -0.255241,0.7801408 0.05078,1.0585937 0.306466,0.2779626 0.780141,0.2552403 1.058594,-0.050781 l 0.0098,-0.00977 C 11.843728,5.1971762 11.820976,4.7219994 11.513672,4.4433594 11.366635,4.310139 11.172799,4.2406111 10.974609,4.25 Z M 2,6.25 C 1.5857864,6.25 1.25,6.5857864 1.25,7 1.25,7.4142136 1.5857864,7.75 2,7.75 H 22 C 22.414214,7.75 22.75,7.4142136 22.75,7 22.75,6.5857864 22.414214,6.25 22,6.25 Z"
         id="path1063"
         sodipodi:nodetypes="ccccccccccccccccccccccccsssssss" />
      <path
         style="color:#000000;fill:#000000;stroke-linecap:round;stroke-linejoin:round;-inkscape-stroke:none"
         d="m 19.533037,22.772251 c 0.199099,4.88e-4 0.390222,-0.07821 0.53125,-0.21875 l 2.5,-2.5 c 0.294122,-0.293102 0.294122,-0.769398 0,-1.0625 -0.293102,-0.294122 -0.769398,-0.294122 -1.0625,0 l -1.21875,1.21875 v -4.1875 c 0,-0.414214 -0.335786,-0.75 -0.75,-0.75 -0.414214,0 -0.75,0.335786 -0.75,0.75 v 4.1875 l -1.21875,-1.21875 c -0.293102,-0.294122 -0.769398,-0.294122 -1.0625,0 -0.294122,0.293102 -0.294122,0.769398 0,1.0625 l 2.5,2.5 c 0.141028,0.140541 0.332151,0.219238 0.53125,0.21875 z"
         id="path1114"
         sodipodi:nodetypes="ccccccssscccccc" />
    </g>
  </g>
</svg>
