<?xml version="1.0" encoding="UTF-8" standalone="no"?>
<svg
   width="27.693209"
   height="25"
   stroke-width="1.5"
   viewBox="0 0 14.448631 13.043478"
   fill="none"
   color="#000000"
   version="1.1"
   id="svg6"
   sodipodi:docname="export-action-floppy.svg"
   inkscape:version="1.2.2 (1:1.2.2+202212051550+b0a8486541)"
   xmlns:inkscape="http://www.inkscape.org/namespaces/inkscape"
   xmlns:sodipodi="http://sodipodi.sourceforge.net/DTD/sodipodi-0.dtd"
   xmlns="http://www.w3.org/2000/svg"
   xmlns:svg="http://www.w3.org/2000/svg">
  <defs
     id="defs10" />
  <sodipodi:namedview
     id="namedview8"
     pagecolor="#ffffff"
     bordercolor="#000000"
     borderopacity="0.25"
     inkscape:showpageshadow="2"
     inkscape:pageopacity="0.0"
     inkscape:pagecheckerboard="0"
     inkscape:deskcolor="#d1d1d1"
     showgrid="false"
     inkscape:zoom="13.062462"
     inkscape:cx="43.138881"
     inkscape:cy="19.100534"
     inkscape:window-width="1876"
     inkscape:window-height="1016"
     inkscape:window-x="44"
     inkscape:window-y="27"
     inkscape:window-maximized="1"
     inkscape:current-layer="layer1" />
  <g
     inkscape:groupmode="layer"
     id="layer1"
     inkscape:label="Layer 1"
     style="display:inline"
     transform="translate(-0.14929774,-2.25)">
    <g
       id="g406"
       transform="matrix(0.66889632,0,0,0.66889632,0.04943303,0.74498328)">
      <path
         d="M 3,7.5 V 5 A 2,2 0 0 1 5,3 h 11.172 a 2,2 0 0 1 1.414,0.586 l 2.828,2.828 A 2,2 0 0 1 21,7.828 V 19 a 2,2 0 0 1 -2,2 H 5 A 2,2 0 0 1 3,19 V 16.5 M 6,21 v -4"
         stroke="#000000"
         stroke-width="1.5"
         stroke-linecap="round"
         stroke-linejoin="round"
         id="path2"
         style="display:inline" />
      <path
         style="color:#000000;fill:#000000;stroke-linecap:round;stroke-linejoin:round;-inkscape-stroke:none"
         d="M 8,2.25 C 7.5857864,2.25 7.25,2.5857864 7.25,3 V 6 C 7.25,6.4142136 7.5857864,6.75 8,6.75 8.4142136,6.75 8.75,6.4142136 8.75,6 V 3 C 8.75,2.5857864 8.4142136,2.25 8,2.25 Z m 8,0 C 15.585786,2.25 15.25,2.5857864 15.25,3 V 8.25 H 13.5 c -0.414214,0 -0.75,0.3357864 -0.75,0.75 0,0.4142136 0.335786,0.75 0.75,0.75 h 1.900391 C 16.137091,9.75 16.75,9.1370908 16.75,8.4003906 V 3 C 16.75,2.5857864 16.414214,2.25 16,2.25 Z m -1,10 c -0.414214,0 -0.75,0.335786 -0.75,0.75 0,0.414214 0.335786,0.75 0.75,0.75 h 2.25 V 21 c 0,0.414214 0.335786,0.75 0.75,0.75 0.414214,0 0.75,-0.335786 0.75,-0.75 V 13.599609 C 18.75,12.862909 18.137091,12.25 17.400391,12.25 Z"
         id="path4"
         sodipodi:nodetypes="ssssssssscsssssssssscssssss" />
      <path
         style="color:#000000;fill:#000000;stroke-linecap:round;stroke-linejoin:round;-inkscape-stroke:none"
         d="m 4.4305387,15.4082 c 0.2941215,-0.293102 0.2941215,-0.769398 0,-1.0625 L 2.711792,12.62695 h 9.187486 c 0.414214,0 0.75,-0.335786 0.75,-0.75 0,-0.414214 -0.335786,-0.75 -0.75,-0.75 H 2.711792 L 4.4305387,9.4082001 c 0.2941215,-0.293102 0.2941215,-0.769398 0,-1.0625 -0.2928794,-0.292818 -0.7676655,-0.292818 -1.0605449,0 L 0.36999937,11.3457 c -0.09378,0.09342 -0.16116673,0.209998 -0.19531163,0.33789 -0.0039,0.04418 -0.0039,0.08863 0,0.132813 -0.0093,0.0198 -0.01781,0.04001 -0.02539,0.06055 0.0049,0.04231 0.01339,0.08413 0.02539,0.125 0.0046,0.03563 0.0118,0.07087 0.02148,0.105469 0.0336,0.112483 0.09314,0.215507 0.17382763,0.300781 l 2.99999443,3 c 0.2928794,0.292818 0.7676655,0.292818 1.0605449,0 z"
         id="path389"
         sodipodi:nodetypes="sccsssccccccccccccss" />
    </g>
  </g>
</svg>
