<?xml version="1.0" encoding="UTF-8" standalone="no"?>
<svg
   width="45.27869"
   height="36.523422"
   stroke-width="1.5"
   viewBox="0 0 45.27869 36.523422"
   fill="none"
   color="#000000"
   version="1.1"
   id="svg516"
   sodipodi:docname="label.svg"
   inkscape:version="1.2.2 (b0a8486541, 2022-12-01)"
   xml:space="preserve"
   xmlns:inkscape="http://www.inkscape.org/namespaces/inkscape"
   xmlns:sodipodi="http://sodipodi.sourceforge.net/DTD/sodipodi-0.dtd"
   xmlns="http://www.w3.org/2000/svg"
   xmlns:svg="http://www.w3.org/2000/svg"><defs
     id="defs520" /><sodipodi:namedview
     id="namedview518"
     pagecolor="#ffffff"
     bordercolor="#000000"
     borderopacity="0.25"
     inkscape:showpageshadow="2"
     inkscape:pageopacity="0.0"
     inkscape:pagecheckerboard="0"
     inkscape:deskcolor="#d1d1d1"
     showgrid="false"
     inkscape:zoom="20"
     inkscape:cx="19.45"
     inkscape:cy="16.325"
     inkscape:window-width="1651"
     inkscape:window-height="955"
     inkscape:window-x="158"
     inkscape:window-y="29"
     inkscape:window-maximized="0"
     inkscape:current-layer="svg516" /><g
     id="g1935"
     transform="matrix(1.2,0,0,1.2,-2.4793232,-4.094904)"><path
       d="m 5.2080813,18.690541 h 1.2378319 v 8.107186 h 4.4549698 v 1.04174 H 5.2080813 Z"
       id="path293"
       style="font-size:12.5499px;-inkscape-font-specification:'sans-serif, Normal';fill:#000000;stroke:#000000;stroke-width:0.522289;stroke-linecap:round" /><path
       d="m 15.270062,24.38947 q -1.366518,0 -1.893516,0.312522 -0.526997,0.312522 -0.526997,1.066251 0,0.600533 0.392184,0.95595 0.398312,0.349289 1.078507,0.349289 0.937566,0 1.501331,-0.661811 0.569893,-0.667939 0.569893,-1.770958 V 24.38947 Z m 2.248932,-0.465719 v 3.915716 h -1.12753 v -1.04174 q -0.386057,0.625044 -0.962078,0.92531 -0.57602,0.294139 -1.409412,0.294139 -1.053996,0 -1.67904,-0.588277 -0.618916,-0.594404 -0.618916,-1.587121 0,-1.15817 0.772113,-1.746446 0.778241,-0.588277 2.316339,-0.588277 h 1.580994 v -0.110302 q 0,-0.77824 -0.514742,-1.201064 -0.508614,-0.428952 -1.433924,-0.428952 -0.588277,0 -1.145914,0.140941 -0.557637,0.140942 -1.072379,0.422824 v -1.04174 q 0.618916,-0.238987 1.201064,-0.355417 0.582149,-0.122557 1.133658,-0.122557 1.489075,0 2.224421,0.772113 0.735346,0.772113 0.735346,2.34085 z"
       id="path295"
       style="font-size:12.5499px;-inkscape-font-specification:'sans-serif, Normal';fill:#000000;stroke:#000000;stroke-width:0.522289;stroke-linecap:round" /><path
       d="m 24.768277,24.413982 q 0,-1.24396 -0.514742,-1.948666 -0.508614,-0.710835 -1.403285,-0.710835 -0.89467,0 -1.409412,0.710835 -0.508614,0.704706 -0.508614,1.948666 0,1.243959 0.508614,1.954794 0.514742,0.704706 1.409412,0.704706 0.894671,0 1.403285,-0.704706 0.514742,-0.710835 0.514742,-1.954794 z M 20.932224,22.01798 q 0.355417,-0.612788 0.89467,-0.906926 0.545382,-0.300266 1.299111,-0.300266 1.250088,0 2.028329,0.992716 0.784368,0.992717 0.784368,2.610478 0,1.61776 -0.784368,2.610477 -0.778241,0.992717 -2.028329,0.992717 -0.753729,0 -1.299111,-0.294139 -0.539253,-0.300266 -0.89467,-0.913054 v 1.029484 h -1.133658 v -9.534983 h 1.133658 z"
       id="path297"
       style="font-size:12.5499px;-inkscape-font-specification:'sans-serif, Normal';fill:#000000;stroke:#000000;stroke-width:0.522289;stroke-linecap:round" /><path
       d="m 33.678215,24.125971 v 0.55151 h -5.184187 q 0.07353,1.164297 0.698579,1.777085 0.631171,0.60666 1.752574,0.60666 0.649555,0 1.256215,-0.159325 0.612788,-0.159325 1.213321,-0.477974 v 1.066251 q -0.606661,0.257371 -1.24396,0.392184 -0.6373,0.134814 -1.292983,0.134814 -1.642272,0 -2.604349,-0.95595 -0.95595,-0.955949 -0.95595,-2.585966 0,-1.685167 0.906926,-2.671756 0.913055,-0.992716 2.457281,-0.992716 1.384901,0 2.187653,0.89467 0.80888,0.888543 0.80888,2.420513 z m -1.12753,-0.330905 q -0.01226,-0.92531 -0.52087,-1.47682 -0.502486,-0.551509 -1.335878,-0.551509 -0.943693,0 -1.513586,0.533126 -0.563765,0.533125 -0.649555,1.501331 z"
       id="path299"
       style="font-size:12.5499px;-inkscape-font-specification:'sans-serif, Normal';fill:#000000;stroke:#000000;stroke-width:0.522289;stroke-linecap:round" /><path
       d="m 35.528836,18.304484 h 1.12753 v 9.534983 h -1.12753 z"
       id="path301"
       style="font-size:12.5499px;-inkscape-font-specification:'sans-serif, Normal';fill:#000000;stroke:#000000;stroke-width:0.522289;stroke-linecap:round" /></g><rect
     style="fill:none;stroke:#000000;stroke-width:2.5;stroke-dasharray:none"
     id="rect1232"
     width="42.77869"
     height="34.023422"
     x="1.25"
     y="1.25"
     ry="4.2146287" /><g
     id="g9628"
     transform="translate(6.3231101,-1.462738)"><path
       d="M 16.862791,5.7320612 V 13.818597"
       fill="none"
       stroke="currentColor"
       stroke-linecap="round"
       stroke-linejoin="round"
       stroke-width="3.63046"
       id="path1"
       style="stroke-width:0.62;stroke-linecap:butt;stroke-dasharray:none"
       sodipodi:nodetypes="cc" /><path
       d="M 18.2,5.7320612 V 13.818597"
       fill="none"
       stroke="currentColor"
       stroke-linecap="round"
       stroke-linejoin="round"
       stroke-width="3.63046"
       id="path1-3"
       style="stroke-width:1.22;stroke-linecap:butt;stroke-dasharray:none"
       sodipodi:nodetypes="cc" /><path
       d="M 19.4,5.7320612 V 13.818597"
       fill="none"
       stroke="currentColor"
       stroke-linecap="round"
       stroke-linejoin="round"
       stroke-width="3.63046"
       id="path1-6"
       style="stroke-width:0.62;stroke-linecap:butt;stroke-dasharray:none"
       sodipodi:nodetypes="cc" /><path
       d="M 20.764853,5.7320611 V 13.818597"
       fill="none"
       stroke="currentColor"
       stroke-linecap="round"
       stroke-linejoin="round"
       stroke-width="3.63046"
       id="path1-7"
       style="stroke-width:0.62;stroke-linecap:butt;stroke-dasharray:none"
       sodipodi:nodetypes="cc" /><path
       d="M 22.1,5.7320611 V 13.818597"
       fill="none"
       stroke="currentColor"
       stroke-linecap="round"
       stroke-linejoin="round"
       stroke-width="3.63046"
       id="path1-3-5"
       style="stroke-width:1.22;stroke-linecap:butt;stroke-dasharray:none"
       sodipodi:nodetypes="cc" /><path
       d="M 23.899762,5.7320611 V 13.818597"
       fill="none"
       stroke="currentColor"
       stroke-linecap="round"
       stroke-linejoin="round"
       stroke-width="3.63046"
       id="path1-3-3"
       style="stroke-width:1.22;stroke-linecap:butt;stroke-dasharray:none"
       sodipodi:nodetypes="cc" /><path
       d="M 29.35,5.7320611 V 13.818597"
       fill="none"
       stroke="currentColor"
       stroke-linecap="round"
       stroke-linejoin="round"
       stroke-width="3.63046"
       id="path1-3-56"
       style="stroke-width:1.22;stroke-linecap:butt;stroke-dasharray:none"
       sodipodi:nodetypes="cc" /><path
       d="M 26.768219,13.818597 V 5.7320612"
       fill="none"
       stroke="currentColor"
       stroke-linecap="round"
       stroke-linejoin="round"
       stroke-width="3.63046"
       id="path1-7-2"
       style="stroke-width:0.62;stroke-linecap:butt;stroke-dasharray:none"
       sodipodi:nodetypes="cc" /><path
       d="M 30.902148,5.7320612 V 13.818597"
       fill="none"
       stroke="currentColor"
       stroke-linecap="round"
       stroke-linejoin="round"
       stroke-width="3.63046"
       id="path1-7-9"
       style="stroke-width:0.62;stroke-linecap:butt;stroke-dasharray:none"
       sodipodi:nodetypes="cc" /><path
       d="M 28.012207,5.7320611 V 13.818597"
       fill="none"
       stroke="currentColor"
       stroke-linecap="round"
       stroke-linejoin="round"
       stroke-width="3.63046"
       id="path1-7-1"
       style="stroke-width:0.62;stroke-linecap:butt;stroke-dasharray:none"
       sodipodi:nodetypes="cc" /><path
       d="M 25.614041,5.7320611 V 13.818597"
       fill="none"
       stroke="currentColor"
       stroke-linecap="round"
       stroke-linejoin="round"
       stroke-width="3.63046"
       id="path1-7-27"
       style="stroke-width:0.62;stroke-linecap:butt;stroke-dasharray:none"
       sodipodi:nodetypes="cc" /><path
       d="M 1.730322,5.7320611 V 13.818597"
       fill="none"
       stroke="currentColor"
       stroke-linecap="round"
       stroke-linejoin="round"
       stroke-width="3.63046"
       id="path1-0"
       style="stroke-width:0.62;stroke-linecap:butt;stroke-dasharray:none"
       sodipodi:nodetypes="cc" /><path
       d="M 3.067531,5.7320611 V 13.818597"
       fill="none"
       stroke="currentColor"
       stroke-linecap="round"
       stroke-linejoin="round"
       stroke-width="3.63046"
       id="path1-3-9"
       style="stroke-width:1.22;stroke-linecap:butt;stroke-dasharray:none"
       sodipodi:nodetypes="cc" /><path
       d="M 4.267531,5.7320611 V 13.818597"
       fill="none"
       stroke="currentColor"
       stroke-linecap="round"
       stroke-linejoin="round"
       stroke-width="3.63046"
       id="path1-6-3"
       style="stroke-width:0.62;stroke-linecap:butt;stroke-dasharray:none"
       sodipodi:nodetypes="cc" /><path
       d="M 5.632384,5.7320611 V 13.818597"
       fill="none"
       stroke="currentColor"
       stroke-linecap="round"
       stroke-linejoin="round"
       stroke-width="3.63046"
       id="path1-7-6"
       style="stroke-width:0.62;stroke-linecap:butt;stroke-dasharray:none"
       sodipodi:nodetypes="cc" /><path
       d="M 6.967531,5.7320611 V 13.818597"
       fill="none"
       stroke="currentColor"
       stroke-linecap="round"
       stroke-linejoin="round"
       stroke-width="3.63046"
       id="path1-3-5-0"
       style="stroke-width:1.22;stroke-linecap:butt;stroke-dasharray:none"
       sodipodi:nodetypes="cc" /><path
       d="M 8.767293,5.7320611 V 13.818597"
       fill="none"
       stroke="currentColor"
       stroke-linecap="round"
       stroke-linejoin="round"
       stroke-width="3.63046"
       id="path1-3-3-6"
       style="stroke-width:1.22;stroke-linecap:butt;stroke-dasharray:none"
       sodipodi:nodetypes="cc" /><path
       d="M 14.217531,5.7320611 V 13.818597"
       fill="none"
       stroke="currentColor"
       stroke-linecap="round"
       stroke-linejoin="round"
       stroke-width="3.63046"
       id="path1-3-56-2"
       style="stroke-width:1.22;stroke-linecap:butt;stroke-dasharray:none"
       sodipodi:nodetypes="cc" /><path
       d="M 11.63575,13.818597 V 5.7320612"
       fill="none"
       stroke="currentColor"
       stroke-linecap="round"
       stroke-linejoin="round"
       stroke-width="3.63046"
       id="path1-7-2-6"
       style="stroke-width:0.62;stroke-linecap:butt;stroke-dasharray:none"
       sodipodi:nodetypes="cc" /><path
       d="M 15.769679,5.7320612 V 13.818597"
       fill="none"
       stroke="currentColor"
       stroke-linecap="round"
       stroke-linejoin="round"
       stroke-width="3.63046"
       id="path1-7-9-1"
       style="stroke-width:0.62;stroke-linecap:butt;stroke-dasharray:none"
       sodipodi:nodetypes="cc" /><path
       d="m 12.879738,5.732061 v 8.086536"
       fill="none"
       stroke="currentColor"
       stroke-linecap="round"
       stroke-linejoin="round"
       stroke-width="3.63046"
       id="path1-7-1-8"
       style="stroke-width:0.62;stroke-linecap:butt;stroke-dasharray:none"
       sodipodi:nodetypes="cc" /><path
       d="m 10.481572,5.732061 v 8.086536"
       fill="none"
       stroke="currentColor"
       stroke-linecap="round"
       stroke-linejoin="round"
       stroke-width="3.63046"
       id="path1-7-27-7"
       style="stroke-width:0.62;stroke-linecap:butt;stroke-dasharray:none"
       sodipodi:nodetypes="cc" /></g></svg>
