<?xml version="1.0" encoding="UTF-8" standalone="no"?>
<svg
   width="41.864407"
   height="34"
   stroke-width="1.5"
   viewBox="0 0 41.864407 34"
   fill="none"
   color="#000000"
   version="1.1"
   id="svg516"
   sodipodi:docname="label.svg"
   inkscape:version="1.2.2 (1:1.2.2+202212051550+b0a8486541)"
   xmlns:inkscape="http://www.inkscape.org/namespaces/inkscape"
   xmlns:sodipodi="http://sodipodi.sourceforge.net/DTD/sodipodi-0.dtd"
   xmlns="http://www.w3.org/2000/svg"
   xmlns:svg="http://www.w3.org/2000/svg">
  <defs
     id="defs520" />
  <sodipodi:namedview
     id="namedview518"
     pagecolor="#ffffff"
     bordercolor="#000000"
     borderopacity="0.25"
     inkscape:showpageshadow="2"
     inkscape:pageopacity="0.0"
     inkscape:pagecheckerboard="0"
     inkscape:deskcolor="#d1d1d1"
     showgrid="false"
     inkscape:zoom="20"
     inkscape:cx="20.5"
     inkscape:cy="15.925"
     inkscape:window-width="1876"
     inkscape:window-height="1016"
     inkscape:window-x="44"
     inkscape:window-y="27"
     inkscape:window-maximized="1"
     inkscape:current-layer="svg516" />
  <g
     id="g451">
    <path
       d="m 5.2080813,4.6905409 h 1.2378319 v 8.1071861 h 4.4549698 v 1.04174 H 5.2080813 Z"
       id="path293"
       style="font-size:12.5499px;-inkscape-font-specification:'sans-serif, Normal';fill:#000000;stroke:#000000;stroke-width:0.522289;stroke-linecap:round" />
    <path
       d="m 15.270062,10.38947 q -1.366518,0 -1.893516,0.312522 -0.526997,0.312522 -0.526997,1.066251 0,0.600533 0.392184,0.95595 0.398312,0.349289 1.078507,0.349289 0.937566,0 1.501331,-0.661811 0.569893,-0.667939 0.569893,-1.770958 V 10.38947 Z m 2.248932,-0.4657188 v 3.9157158 h -1.12753 v -1.04174 q -0.386057,0.625044 -0.962078,0.92531 -0.57602,0.294139 -1.409412,0.294139 -1.053996,0 -1.67904,-0.588277 -0.618916,-0.594404 -0.618916,-1.587121 0,-1.15817 0.772113,-1.746446 0.778241,-0.5882767 2.316339,-0.5882767 h 1.580994 V 9.3967534 q 0,-0.7782409 -0.514742,-1.2010646 -0.508614,-0.4289517 -1.433924,-0.4289517 -0.588277,0 -1.145914,0.1409413 -0.557637,0.1409412 -1.072379,0.4228237 V 7.2887624 q 0.618916,-0.2389874 1.201064,-0.3554171 0.582149,-0.1225576 1.133658,-0.1225576 1.489075,0 2.224421,0.772113 0.735346,0.772113 0.735346,2.3408505 z"
       id="path295"
       style="font-size:12.5499px;-inkscape-font-specification:'sans-serif, Normal';fill:#000000;stroke:#000000;stroke-width:0.522289;stroke-linecap:round" />
    <path
       d="m 24.768277,10.413982 q 0,-1.2439602 -0.514742,-1.9486665 -0.508614,-0.7108342 -1.403285,-0.7108342 -0.89467,0 -1.409412,0.7108342 -0.508614,0.7047063 -0.508614,1.9486665 0,1.243959 0.508614,1.954794 0.514742,0.704706 1.409412,0.704706 0.894671,0 1.403285,-0.704706 0.514742,-0.710835 0.514742,-1.954794 z M 20.932224,8.0179802 q 0.355417,-0.6127881 0.89467,-0.9069264 0.545382,-0.3002661 1.299111,-0.3002661 1.250088,0 2.028329,0.9927167 0.784368,0.9927167 0.784368,2.6104776 0,1.61776 -0.784368,2.610477 -0.778241,0.992717 -2.028329,0.992717 -0.753729,0 -1.299111,-0.294139 -0.539253,-0.300266 -0.89467,-0.913054 v 1.029484 H 19.798566 V 4.3044844 h 1.133658 z"
       id="path297"
       style="font-size:12.5499px;-inkscape-font-specification:'sans-serif, Normal';fill:#000000;stroke:#000000;stroke-width:0.522289;stroke-linecap:round" />
    <path
       d="m 33.678215,10.125971 v 0.55151 h -5.184187 q 0.07353,1.164297 0.698579,1.777085 0.631171,0.60666 1.752574,0.60666 0.649555,0 1.256215,-0.159325 0.612788,-0.159325 1.213321,-0.477974 v 1.066251 q -0.606661,0.257371 -1.24396,0.392184 -0.6373,0.134814 -1.292983,0.134814 -1.642272,0 -2.604349,-0.95595 -0.95595,-0.955949 -0.95595,-2.585966 0,-1.6851668 0.906926,-2.6717556 0.913055,-0.9927167 2.457281,-0.9927167 1.384901,0 2.187653,0.8946706 0.80888,0.8885427 0.80888,2.4205127 z M 32.550685,9.7950657 Q 32.53843,8.8697556 32.029815,8.3182464 31.527329,7.7667371 30.693937,7.7667371 q -0.943693,0 -1.513586,0.5331256 -0.563765,0.5331257 -0.649555,1.5013308 z"
       id="path299"
       style="font-size:12.5499px;-inkscape-font-specification:'sans-serif, Normal';fill:#000000;stroke:#000000;stroke-width:0.522289;stroke-linecap:round" />
    <path
       d="m 35.528836,4.3044844 h 1.12753 v 9.5349826 h -1.12753 z"
       id="path301"
       style="font-size:12.5499px;-inkscape-font-specification:'sans-serif, Normal';fill:#000000;stroke:#000000;stroke-width:0.522289;stroke-linecap:round" />
    <path
       d="m 8.3950588,20.429605 q -1.0774092,0 -1.7140601,0.80316 -0.6317536,0.80316 -0.6317536,2.1891 0,1.381042 0.6317536,2.184202 0.6366509,0.80316 1.7140601,0.80316 1.0774092,0 1.7042652,-0.80316 0.631754,-0.80316 0.631754,-2.184202 0,-1.38594 -0.631754,-2.1891 -0.626856,-0.80316 -1.7042652,-0.80316 z m 1.38594,6.508532 1.3026862,1.425118 H 9.8887398 L 8.8064332,27.192797 q -0.1616114,0.0098 -0.249763,0.01469 -0.083254,0.0049 -0.1616114,0.0049 -1.5426541,0 -2.4682465,-1.028436 -0.9206952,-1.033333 -0.9206952,-2.762085 0,-1.73365 0.9206952,-2.762086 0.9255924,-1.033333 2.4682465,-1.033333 1.5377568,0 2.4584522,1.033333 0.920695,1.028436 0.920695,2.762086 0,1.273301 -0.514218,2.179305 -0.509321,0.906003 -1.4789892,1.336967 z"
       id="path304"
       style="font-size:10.0297px;-inkscape-font-specification:'sans-serif, Normal';fill:#000000;stroke:#000000;stroke-width:0.522289;stroke-linecap:round" />
    <path
       d="m 13.18953,24.905751 v -3.320379 h 0.901106 v 3.286098 q 0,0.778673 0.303633,1.170458 0.303634,0.386888 0.910901,0.386888 0.7297,0 1.150869,-0.465245 0.426066,-0.465245 0.426066,-1.268405 v -3.109794 h 0.901106 v 5.484992 h -0.901106 v -0.842338 q -0.32812,0.499526 -0.763981,0.744392 -0.430964,0.239968 -1.00395,0.239968 -0.945181,0 -1.434913,-0.587678 -0.489731,-0.587677 -0.489731,-1.718957 z m 2.267456,-3.452607 z"
       id="path306"
       style="font-size:10.0297px;-inkscape-font-specification:'sans-serif, Normal';fill:#000000;stroke:#000000;stroke-width:0.522289;stroke-linecap:round" />
    <path
       d="m 24.33092,24.102591 v 0.440759 h -4.143128 q 0.05877,0.930489 0.558294,1.420221 0.504424,0.484834 1.400632,0.484834 0.519115,0 1.00395,-0.12733 0.489731,-0.12733 0.969668,-0.381991 v 0.852133 q -0.484834,0.205687 -0.994155,0.313428 -0.509321,0.107741 -1.033333,0.107741 -1.312481,0 -2.081359,-0.763981 -0.763981,-0.763981 -0.763981,-2.066667 0,-1.346761 0.724802,-2.135229 0.7297,-0.793365 1.963824,-0.793365 1.106793,0 1.748341,0.715008 0.646445,0.710111 0.646445,1.934439 z m -0.901105,-0.264455 q -0.0098,-0.739494 -0.416272,-1.180252 -0.40158,-0.440759 -1.067615,-0.440759 -0.754186,0 -1.209636,0.426067 -0.450553,0.426066 -0.519116,1.199842 z"
       id="path308"
       style="font-size:10.0297px;-inkscape-font-specification:'sans-serif, Normal';fill:#000000;stroke:#000000;stroke-width:0.522289;stroke-linecap:round" />
    <path
       d="m 25.716861,24.905751 v -3.320379 h 0.901106 v 3.286098 q 0,0.778673 0.303634,1.170458 0.303633,0.386888 0.9109,0.386888 0.7297,0 1.150869,-0.465245 0.426066,-0.465245 0.426066,-1.268405 v -3.109794 h 0.901106 v 5.484992 h -0.901106 v -0.842338 q -0.32812,0.499526 -0.763981,0.744392 -0.430963,0.239968 -1.003949,0.239968 -0.945182,0 -1.434913,-0.587678 -0.489732,-0.587677 -0.489732,-1.718957 z m 2.267457,-3.452607 z"
       id="path310"
       style="font-size:10.0297px;-inkscape-font-specification:'sans-serif, Normal';fill:#000000;stroke:#000000;stroke-width:0.522289;stroke-linecap:round" />
    <path
       d="m 36.85825,24.102591 v 0.440759 h -4.143128 q 0.05877,0.930489 0.558294,1.420221 0.504423,0.484834 1.400632,0.484834 0.519115,0 1.003949,-0.12733 0.489732,-0.12733 0.969668,-0.381991 v 0.852133 q -0.484834,0.205687 -0.994155,0.313428 -0.50932,0.107741 -1.033333,0.107741 -1.31248,0 -2.081359,-0.763981 -0.763981,-0.763981 -0.763981,-2.066667 0,-1.346761 0.724803,-2.135229 0.7297,-0.793365 1.963823,-0.793365 1.106793,0 1.748341,0.715008 0.646446,0.710111 0.646446,1.934439 z m -0.901106,-0.264455 q -0.0098,-0.739494 -0.416272,-1.180252 -0.40158,-0.440759 -1.067614,-0.440759 -0.754187,0 -1.209637,0.426067 -0.450553,0.426066 -0.519115,1.199842 z"
       id="path312"
       style="font-size:10.0297px;-inkscape-font-specification:'sans-serif, Normal';fill:#000000;stroke:#000000;stroke-width:0.522289;stroke-linecap:round" />
    <path
       d="M 2.560704,1.23992 H 39.408213 M 2.560704,32.760079 h 36.847509"
       stroke="#000000"
       stroke-width="3.95106"
       stroke-linecap="round"
       stroke-linejoin="round"
       id="path514"
       sodipodi:nodetypes="cccc"
       style="stroke-width:2.47984;stroke-linecap:square;stroke-dasharray:none" />
    <path
       d="M 1.201265,32.784725 V 1.2152238"
       stroke="#000000"
       stroke-width="3.77778"
       stroke-linecap="round"
       stroke-linejoin="round"
       id="path514-6"
       sodipodi:nodetypes="cc"
       style="stroke-width:2.40253;stroke-linecap:round;stroke-dasharray:none" />
    <path
       d="M 40.663143,32.784725 V 1.2152238"
       stroke="#000000"
       stroke-width="3.77778"
       stroke-linecap="round"
       stroke-linejoin="round"
       id="path514-6-1"
       sodipodi:nodetypes="cc"
       style="stroke-width:2.40253;stroke-linecap:round;stroke-dasharray:none" />
  </g>
</svg>
