<?xml version="1.0" encoding="UTF-8" standalone="no"?>
<svg
   width="33.999996"
   height="33.999996"
   stroke-width="1.5"
   viewBox="0 0 33.999996 33.999996"
   fill="none"
   color="#000000"
   version="1.1"
   id="svg173"
   sodipodi:docname="printer.svg"
   inkscape:version="1.2.2 (1:1.2.2+202212051550+b0a8486541)"
   xmlns:inkscape="http://www.inkscape.org/namespaces/inkscape"
   xmlns:sodipodi="http://sodipodi.sourceforge.net/DTD/sodipodi-0.dtd"
   xmlns="http://www.w3.org/2000/svg"
   xmlns:svg="http://www.w3.org/2000/svg">
  <defs
     id="defs177" />
  <sodipodi:namedview
     id="namedview175"
     pagecolor="#ffffff"
     bordercolor="#000000"
     borderopacity="0.25"
     inkscape:showpageshadow="2"
     inkscape:pageopacity="0.0"
     inkscape:pagecheckerboard="0"
     inkscape:deskcolor="#d1d1d1"
     showgrid="false"
     inkscape:zoom="22.29"
     inkscape:cx="10.497981"
     inkscape:cy="16.913414"
     inkscape:window-width="1611"
     inkscape:window-height="939"
     inkscape:window-x="44"
     inkscape:window-y="27"
     inkscape:window-maximized="0"
     inkscape:current-layer="svg173"
     showguides="true">
    <sodipodi:guide
       position="34.14087,-0.54464266"
       orientation="0,-1"
       id="guide4917"
       inkscape:locked="false" />
  </sodipodi:namedview>
  <path
     d="M 1.3135901,25.840774 H 32.84854 M 6.569415,13.577182 V 2.3647552 A 1.051165,1.051165 0 0 1 7.6205801,1.3135901 H 26.541551 a 1.051165,1.051165 0 0 1 1.051164,1.0511651 V 13.577182 M 32.84854,31.797375 V 20.584948 A 7.0077666,7.0077666 0 0 0 25.840774,13.577182 H 8.3213567 A 7.0077666,7.0077666 0 0 0 1.3135901,20.584948 V 31.797375 A 1.051165,1.051165 0 0 0 2.3647552,32.84854 H 31.797375 a 1.051165,1.051165 0 0 0 1.051165,-1.051165 z"
     stroke="#000000"
     stroke-width="2.61538"
     id="path169"
     style="stroke-width:2.46505;stroke-dasharray:none" />
  <path
     d="m 25.717947,18.761024 0.01744,-0.01918"
     stroke="#000000"
     stroke-width="2.61538"
     stroke-linecap="round"
     stroke-linejoin="round"
     id="path171"
     style="stroke-width:2.46425197;stroke-dasharray:none" />
</svg>
