<?xml version="1.0" encoding="UTF-8" standalone="no"?>
<svg
   width="34"
   height="34"
   viewBox="0 0 34 34"
   stroke-width="1.5"
   fill="none"
   color="#000000"
   version="1.1"
   id="svg40"
   sodipodi:docname="tools.svg"
   inkscape:version="1.2.2 (1:1.2.2+202212051550+b0a8486541)"
   xmlns:inkscape="http://www.inkscape.org/namespaces/inkscape"
   xmlns:sodipodi="http://sodipodi.sourceforge.net/DTD/sodipodi-0.dtd"
   xmlns="http://www.w3.org/2000/svg"
   xmlns:svg="http://www.w3.org/2000/svg">
  <defs
     id="defs44" />
  <sodipodi:namedview
     id="namedview42"
     pagecolor="#ffffff"
     bordercolor="#000000"
     borderopacity="0.25"
     inkscape:showpageshadow="2"
     inkscape:pageopacity="0.0"
     inkscape:pagecheckerboard="0"
     inkscape:deskcolor="#d1d1d1"
     showgrid="false"
     inkscape:zoom="31.583333"
     inkscape:cx="10.337731"
     inkscape:cy="12.015831"
     inkscape:window-width="1876"
     inkscape:window-height="1016"
     inkscape:window-x="44"
     inkscape:window-y="27"
     inkscape:window-maximized="1"
     inkscape:current-layer="svg40" />
  <g
     id="g275"
     transform="translate(-1.5075081,-0.91101961)">
    <path
       d="M 15.298692,16.66415 3.8120116,28.15083 a 3.2494146,3.2494146 0 0 0 0,4.597922 v 0 a 3.2494146,3.2494146 0 0 0 4.5946722,0 L 19.893364,21.258822 m 7.010612,0.593018 6.300615,6.300615 a 3.2494146,3.2494146 0 0 1 0,4.594672 v 0 a 3.2494146,3.2494146 0 0 1 -4.594672,0 L 18.522111,22.660944 M 9.909538,9.0231513 6.4602844,10.170195 3.015905,4.4268544 5.3132411,2.1295183 11.058206,5.5755224 Z m 0,0 4.597922,4.5979217"
       stroke="#000000"
       stroke-width="2.43706"
       stroke-linecap="round"
       stroke-linejoin="round"
       id="path36" />
    <path
       d="M 15.298692,16.66415 C 13.927439,13.166155 14.195516,8.5763568 17.022506,5.7493661 19.849497,2.9223755 25.064807,2.303362 27.935665,4.0271764 l -4.93911,4.9391101 -0.459792,5.0544645 5.054464,-0.458168 4.93911,-4.9407344 c 1.72544,2.8724824 1.104801,8.0877924 -1.722189,10.9131584 -2.826991,2.826991 -7.415164,3.095068 -10.913159,1.723815"
       stroke="#000000"
       stroke-width="2.43706"
       stroke-linecap="round"
       stroke-linejoin="round"
       id="path38" />
  </g>
</svg>
