<?xml version="1.0" encoding="UTF-8" standalone="no"?>
<svg
   width="34"
   height="33.99995"
   viewBox="0 0 34 33.99995"
   stroke-width="1.5"
   fill="none"
   color="#000000"
   version="1.1"
   id="svg6"
   sodipodi:docname="add-page.svg"
   inkscape:version="1.2.2 (1:1.2.2+202212051550+b0a8486541)"
   xmlns:inkscape="http://www.inkscape.org/namespaces/inkscape"
   xmlns:sodipodi="http://sodipodi.sourceforge.net/DTD/sodipodi-0.dtd"
   xmlns="http://www.w3.org/2000/svg"
   xmlns:svg="http://www.w3.org/2000/svg">
  <defs
     id="defs10" />
  <sodipodi:namedview
     id="namedview8"
     pagecolor="#ffffff"
     bordercolor="#000000"
     borderopacity="0.25"
     inkscape:showpageshadow="2"
     inkscape:pageopacity="0.0"
     inkscape:pagecheckerboard="0"
     inkscape:deskcolor="#d1d1d1"
     showgrid="false"
     inkscape:zoom="15.786918"
     inkscape:cx="6.6194048"
     inkscape:cy="16.627691"
     inkscape:window-width="1876"
     inkscape:window-height="1016"
     inkscape:window-x="44"
     inkscape:window-y="27"
     inkscape:window-maximized="1"
     inkscape:current-layer="svg6" />
  <g
     id="g812"
     transform="translate(3.162815)">
    <g
       id="g299"
       transform="matrix(1.2307503,0,0,1.2307503,-3.9997511,-1.330636)">
      <g
         id="g784"
         transform="translate(0.9252839,1.6278059)">
        <path
           style="fill:none;stroke:#000000;stroke-width:2.25615;stroke-linecap:round"
           d="m 8.0259933,15.154613 c 11.1082487,0 11.0829127,0 11.0829127,0"
           id="path753" />
        <path
           style="fill:none;stroke:#000000;stroke-width:2.25615;stroke-linecap:round"
           d="m 13.56745,21.013196 c 0,-11.7439512 0,-11.7171662 0,-11.7171662"
           id="path753-7" />
      </g>
    </g>
    <g
       id="g803"
       transform="translate(-2.424778,0.20754025)">
      <path
         d="M 3.610778,31.657574 V 1.927342 A 0.94883718,0.94883718 0 0 1 4.559615,0.9785048 h 18.426418 a 0.94883718,0.94883718 0 0 1 0.670512,0.2783256 l 4.978232,4.9782324 a 0.94883718,0.94883718 0 0 1 0.278326,0.6736744 V 31.657574 a 0.94883718,0.94883718 0 0 1 -0.948837,0.948837 H 4.559615 A 0.94883718,0.94883718 0 0 1 3.610778,31.657574 Z"
         stroke="#000000"
         stroke-width="2.37209"
         stroke-linecap="round"
         stroke-linejoin="round"
         id="path2-3"
         style="stroke-width:2.372;stroke-dasharray:none" />
      <path
         d="m 22.587522,0.9785048 v 5.376744 a 0.94883718,0.94883718 0 0 0 0.948837,0.9488372 h 5.376744"
         stroke="#000000"
         stroke-width="2.37209"
         stroke-linecap="round"
         stroke-linejoin="round"
         id="path4-6" />
    </g>
  </g>
</svg>
