<?xml version="1.0" encoding="UTF-8" standalone="no"?>
<svg
   width="34"
   height="34"
   stroke-width="1.5"
   viewBox="0 0 34 34"
   fill="none"
   color="#000000"
   version="1.1"
   id="svg6"
   sodipodi:docname="copy.svg"
   inkscape:version="1.2.2 (1:1.2.2+202212051550+b0a8486541)"
   xmlns:inkscape="http://www.inkscape.org/namespaces/inkscape"
   xmlns:sodipodi="http://sodipodi.sourceforge.net/DTD/sodipodi-0.dtd"
   xmlns="http://www.w3.org/2000/svg"
   xmlns:svg="http://www.w3.org/2000/svg">
  <defs
     id="defs10" />
  <sodipodi:namedview
     id="namedview8"
     pagecolor="#ffffff"
     bordercolor="#000000"
     borderopacity="0.25"
     inkscape:showpageshadow="2"
     inkscape:pageopacity="0.0"
     inkscape:pagecheckerboard="0"
     inkscape:deskcolor="#d1d1d1"
     showgrid="false"
     inkscape:zoom="19.444408"
     inkscape:cx="14.914314"
     inkscape:cy="18.771464"
     inkscape:window-width="1429"
     inkscape:window-height="939"
     inkscape:window-x="94"
     inkscape:window-y="77"
     inkscape:window-maximized="0"
     inkscape:current-layer="svg6" />
  <g
     id="g241"
     transform="matrix(1.2307691,0,0,1.2307691,-3.9999975,-3.9999975)">
    <path
       d="m 28.743929,29.691071 h -15.47 a 0.94714286,0.94714286 0 0 1 -0.947143,-0.947142 v -15.47 a 0.94714286,0.94714286 0 0 1 0.947143,-0.947143 h 15.47 a 0.94714286,0.94714286 0 0 1 0.947142,0.947143 v 15.47 a 0.94714286,0.94714286 0 0 1 -0.947142,0.947142 z"
       stroke="#000000"
       stroke-width="2.36786"
       stroke-linecap="round"
       stroke-linejoin="round"
       id="path2" />
    <path
       d="M 21.798214,12.326786 V 5.3810714 A 0.94714286,0.94714286 0 0 0 20.851071,4.4339286 H 5.3810714 A 0.94714286,0.94714286 0 0 0 4.4339286,5.3810714 V 20.851071 a 0.94714286,0.94714286 0 0 0 0.9471428,0.947143 h 6.9457146"
       stroke="#000000"
       stroke-width="2.36786"
       stroke-linecap="round"
       stroke-linejoin="round"
       id="path4" />
  </g>
</svg>
