<?xml version="1.0" encoding="UTF-8" standalone="no"?>
<svg
   width="34.000008"
   height="35.749863"
   stroke-width="1.5"
   viewBox="0 0 17.739135 18.652102"
   fill="none"
   color="#000000"
   version="1.1"
   id="svg184"
   sodipodi:docname="database-restore.svg"
   inkscape:version="1.2.2 (1:1.2.2+202212051550+b0a8486541)"
   xmlns:inkscape="http://www.inkscape.org/namespaces/inkscape"
   xmlns:sodipodi="http://sodipodi.sourceforge.net/DTD/sodipodi-0.dtd"
   xmlns="http://www.w3.org/2000/svg"
   xmlns:svg="http://www.w3.org/2000/svg">
  <defs
     id="defs188" />
  <sodipodi:namedview
     id="namedview186"
     pagecolor="#ffffff"
     bordercolor="#000000"
     borderopacity="0.25"
     inkscape:showpageshadow="2"
     inkscape:pageopacity="0.0"
     inkscape:pagecheckerboard="0"
     inkscape:deskcolor="#d1d1d1"
     showgrid="false"
     inkscape:zoom="16.478261"
     inkscape:cx="9.7704485"
     inkscape:cy="18.509235"
     inkscape:window-width="1429"
     inkscape:window-height="939"
     inkscape:window-x="196"
     inkscape:window-y="58"
     inkscape:window-maximized="0"
     inkscape:current-layer="svg184" />
  <path
     d="m 0.65404828,3.3925755 v 5.4770542 c 0,0 0,2.7385273 6.41634682,2.7385273 6.4163469,0 6.4163469,-2.7385273 6.4163469,-2.7385273 V 3.3925755"
     stroke="#000000"
     stroke-width="1.5"
     stroke-linecap="round"
     stroke-linejoin="round"
     id="path180"
     style="stroke-width:1.23995;stroke-dasharray:none" />
  <path
     d="m 7.0703951,0.65404841 c 6.4163469,0 6.4163469,2.73852709 6.4163469,2.73852709 0,0 0,2.7385271 -6.4163469,2.7385271 -6.41634682,0 -6.41634682,-2.7385271 -6.41634682,-2.7385271 0,0 0,-2.73852709 6.41634682,-2.73852709 z m 0,16.43116259 c -6.41634682,0 -6.41634682,-2.738527 -6.41634682,-2.738527 V 8.8696297 M 14.403363,17.998053 v -5.477054 m 0,0 2.749863,2.738527 M 14.403363,12.520999 11.6535,15.259526"
     stroke="#000000"
     stroke-width="1.5"
     stroke-linecap="round"
     stroke-linejoin="round"
     id="path182"
     style="stroke-width:1.23995;stroke-dasharray:none" />
</svg>
