<?xml version="1.0" encoding="UTF-8" standalone="no"?>
<svg
   width="33.999996"
   height="33.999996"
   stroke-width="1.5"
   viewBox="0 0 33.999996 33.999996"
   fill="none"
   color="#000000"
   version="1.1"
   id="svg350"
   sodipodi:docname="printing-page.svg"
   inkscape:version="1.2.2 (1:1.2.2+202212051550+b0a8486541)"
   xmlns:inkscape="http://www.inkscape.org/namespaces/inkscape"
   xmlns:sodipodi="http://sodipodi.sourceforge.net/DTD/sodipodi-0.dtd"
   xmlns="http://www.w3.org/2000/svg"
   xmlns:svg="http://www.w3.org/2000/svg">
  <defs
     id="defs354" />
  <sodipodi:namedview
     id="namedview352"
     pagecolor="#ffffff"
     bordercolor="#000000"
     borderopacity="0.25"
     inkscape:showpageshadow="2"
     inkscape:pageopacity="0.0"
     inkscape:pagecheckerboard="0"
     inkscape:deskcolor="#d1d1d1"
     showgrid="false"
     inkscape:zoom="31.583333"
     inkscape:cx="9.2295515"
     inkscape:cy="9.76781"
     inkscape:window-width="1876"
     inkscape:window-height="1016"
     inkscape:window-x="44"
     inkscape:window-y="27"
     inkscape:window-maximized="1"
     inkscape:current-layer="svg350" />
  <path
     d="m 26.713536,27.461536 h 4.932616 a 1.0461538,1.0461538 0 0 0 1.046154,-1.046153 V 15.256408 A 6.974359,6.974359 0 0 0 25.717947,8.2820487 H 8.2820487 A 6.974359,6.974359 0 0 0 1.30769,15.256408 v 11.158975 a 1.0461538,1.0461538 0 0 0 1.0461539,1.046153 H 7.2864592 M 10.025639,8.2820487 V 2.3538439 A 1.0461538,1.0461538 0 0 1 11.071793,1.30769 h 11.85641 a 1.0461538,1.0461538 0 0 1 1.046154,1.0461539 v 5.9282048"
     stroke="#000000"
     stroke-width="2.61538"
     id="path344" />
  <path
     d="m 6.709331,31.497947 0.5753846,-4.036411 0.8683081,-6.07641 a 1.0461538,1.0461538 0 0 1 1.035692,-0.897949 H 24.81128 a 1.0461538,1.0461538 0 0 1 1.035692,0.897949 l 0.864821,6.07641 0.577128,4.036411 a 1.0461538,1.0461538 0 0 1 -1.035692,1.194359 H 7.7450233 A 1.0461538,1.0461538 0 0 1 6.709331,31.497947 Z"
     stroke="#000000"
     stroke-width="2.61538"
     id="path346" />
  <path
     d="m 14.749998,7.7599977 0.01,-0.011"
     stroke="#000000"
     stroke-width="1.5"
     stroke-linecap="round"
     stroke-linejoin="round"
     id="path348" />
</svg>
