<?xml version="1.0" encoding="UTF-8" standalone="no"?>
<svg
   width="34px"
   height="34px"
   stroke-width="1.5"
   viewBox="0 0 24 24"
   fill="none"
   color="#000000"
   version="1.1"
   id="svg6"
   sodipodi:docname="save-floppy-disk.svg"
   inkscape:version="1.2.2 (1:1.2.2+202212051550+b0a8486541)"
   xmlns:inkscape="http://www.inkscape.org/namespaces/inkscape"
   xmlns:sodipodi="http://sodipodi.sourceforge.net/DTD/sodipodi-0.dtd"
   xmlns="http://www.w3.org/2000/svg"
   xmlns:svg="http://www.w3.org/2000/svg">
  <defs
     id="defs10" />
  <sodipodi:namedview
     id="namedview8"
     pagecolor="#ffffff"
     bordercolor="#000000"
     borderopacity="0.25"
     inkscape:showpageshadow="2"
     inkscape:pageopacity="0.0"
     inkscape:pagecheckerboard="0"
     inkscape:deskcolor="#d1d1d1"
     showgrid="false"
     inkscape:zoom="22.294118"
     inkscape:cx="14.645119"
     inkscape:cy="17.022427"
     inkscape:window-width="1876"
     inkscape:window-height="1016"
     inkscape:window-x="44"
     inkscape:window-y="27"
     inkscape:window-maximized="1"
     inkscape:current-layer="svg6" />
  <path
     d="M 0.92307545,20.615385 V 3.3846148 A 2.4615387,2.4615385 0 0 1 3.3846142,0.92307645 H 17.134769 a 2.4615387,2.4615385 0 0 1 1.740309,0.72123065 l 3.480616,3.4806154 a 2.4615387,2.4615385 0 0 1 0.721231,1.7403077 V 20.615385 a 2.4615387,2.4615385 0 0 1 -2.461539,2.461539 H 3.3846142 A 2.4615387,2.4615385 0 0 1 0.92307545,20.615385 Z"
     stroke="#000000"
     stroke-width="1.84615"
     id="path2" />
  <path
     d="M 7.8153841,8.3076916 H 16.184615 A 0.73846162,0.73846155 0 0 0 16.923077,7.5692303 V 1.661538 A 0.73846162,0.73846155 0 0 0 16.184615,0.92307645 H 7.8153841 A 0.73846162,0.73846155 0 0 0 7.0769228,1.661538 V 7.5692303 A 0.73846162,0.73846155 0 0 0 7.8153841,8.3076916 Z M 4.615384,13.969231 v 9.107693 H 19.384616 V 13.969231 A 0.73846162,0.73846155 0 0 0 18.646155,13.230769 H 5.3538456 A 0.73846162,0.73846155 0 0 0 4.615384,13.969231 Z"
     stroke="#000000"
     stroke-width="1.84615"
     id="path4" />
</svg>
